<?xml version="1.0" encoding="utf-8"?>
<!-- Generator: Adobe Illustrator 26.3.1, SVG Export Plug-In . SVG Version: 6.00 Build 0)  -->
<svg version="1.1"
	 id="svg2" xmlns:cc="http://creativecommons.org/ns#" xmlns:rdf="http://www.w3.org/1999/02/22-rdf-syntax-ns#" xmlns:inkscape="http://www.inkscape.org/namespaces/inkscape" xmlns:dc="http://purl.org/dc/elements/1.1/" xmlns:ns1="http://sozi.baierouge.fr" xmlns:sodipodi="http://sodipodi.sourceforge.net/DTD/sodipodi-0.dtd" sodipodi:docname="Nouveau document 1" inkscape:version="0.48.4 r9939"
	 xmlns="http://www.w3.org/2000/svg" xmlns:xlink="http://www.w3.org/1999/xlink" x="0px" y="0px" viewBox="0 0 805.7 716"
	 style="enable-background:new 0 0 805.7 716;" xml:space="preserve">
<sodipodi:namedview  bordercolor="#666666" borderopacity="1.0" fit-margin-bottom="0" fit-margin-left="0" fit-margin-right="0" fit-margin-top="0" id="base" inkscape:current-layer="layer1" inkscape:cx="771.90378" inkscape:cy="-60.657845" inkscape:document-units="px" inkscape:pageopacity="0.0" inkscape:pageshadow="2" inkscape:window-height="876" inkscape:window-maximized="1" inkscape:window-width="1551" inkscape:window-x="49" inkscape:window-y="24" inkscape:zoom="0.35" pagecolor="#ffffff" showgrid="false">
	</sodipodi:namedview>
<path id="path4261" inkscape:connector-curvature="0" d="M224.2,177.4c2.8-22.3,4.1-39.4,21-56.7c7.9-8.1,9-7.8,18.3-12.6
	c24.1-12.6,37.6-10.3,63.2-3.7c22.9,5.9,26.4,5.6,43,23.1c3.9,4.1,7.8,7.9,10.7,12.8c10.2,17.2,7.5,38.3,7.5,57.5l31.5,3.7l-1.9-5.6
	l1.9-1.9c16.8,3.4,62.8,18.1,77.9,25.6l55.3,30.3c7.6,2.9,9.1-1.2,17,1c7,1.9,16,9.4,22.3,13.5c7.9,5.2,17.4,8.5,22.3,16.8
	c15.9-3.5,24,9.1,37.1,17.5l24.1,14.1c7.7,3.3,12.6,3.1,20.2,8.8c10.9,8.2,20.1,24.1,27.3,35.6c3.5,5.6,9.5,13.6,14.2,18l12.3,8.7
	c6.5,5.5,15.4,20.5,17.2,28.9c1.3,6.5-0.1,12.5-2.3,18.5c-9.8,27.4-36,37.5-59.2,50.8c-41.6,23.8-61,30.5-103.8,48.5
	c-13.9,5.8-44.6,16.6-55.6,24.2c-20,13.9-16.8,19.5-25.4,39.6c-3,7-7.7,14.7-7.9,22.3H33.7l4.7-13c3-11.4,0.8-23.8,1.9-35.2
	l5.5-48.2l5.1-16.7c6.5-22,8.5-34.5,23.9-53.7c9.1-11.4,13.7-10.4,23.8-17.9c12.6-9.4,18-19.1,35.3-26.6l40.8-14.1
	c14.1-8,22.4-25.9,33.7-37.8c4.3-4.5,8.5-8,14.5-10c4.3-1.4,10.2-1.1,12.9-5.5c1.6-3,0.1-15.4,0-19.8l-1.8-42.6
	c-3.1-0.4-5.7-0.4-8.5-2.2c-9-5.8-11.6-28.7-11.9-38.6c-0.3-10.2-4.1-16.6,7.4-18.5C221,192.6,221.5,199.3,224.2,177.4L224.2,177.4z
	 M451,258.6l-57.5-29.3c-1.2,14.5-4.5,33.5-11.4,46.3c-6.3,11.8-9.6,7.1-13.3,13.6c-4.1,7-10.3,41.4-8.7,49.5
	c2.1,10.8,14.3,37.8,26.1,39.7c14.2,2.3,18.3-15.9,29.6-14.5c12.5,1.5,12.7,21.5,22.5,22.6c1.6,0.2,28.7-7.1,36.9-6.6l22.3,2.8l13,4
	l40.8,2.4l29.7,3.4l13,2.1h26c-8.7-11.3-12.9-18-16.7-31.8l-3.7,1.9c0.4-4.5-0.6-5.7,3.7-7.4l-5.6-11.1c-5,7.7-9-11.6-9.3-14.8
	l-5.6,3.7l-22.3-10.8c-13.5-8.4-19.7-18.3-37.1-20.6l-24.1,1.7c-21.9-0.5-29-6.7-46.4-10.3c-9.1-1.9-24-3.5-31.2-9.5
	c-8.2-6.9-1.1-13.9,7.1-15.1c9-1.3,28.9,5.1,38.9,7.1C465.7,265.7,460.5,264.5,451,258.6L451,258.6z M404.6,377.7l24.1,11.1
	l-11.1-24.1C409.4,367.8,408.4,370.1,404.6,377.7z"/>
</svg>
